# xmcd
#
# Track frame offsets: 
#        150
#        8507
#        16190
#        39592
#        84230
#        112580
#        132152
#        160570
#        174645
#        190690
#        214647
#        232550
#        247207
#        266482
#        305290
#        325695
#
# Disc length: 4751 seconds
#
# Revision: 0
# Processed by: cddbd v1.5.1PL0 Copyright (c) Steve Scherf et al.
# Submitted via: ExactAudioCopy v0.90b4
#
DISCID=af128d10
DTITLE=B.B. King - Live In Cook County Jail [1970] and To Know You Is To
DTITLE=Love You [1973]
DYEAR=1973
DGENRE=Blues
TTITLE0=Introductions
TTITLE1=Every Day I Have The Blues
TTITLE2=How Blue Can You Get?
TTITLE3=Worry, Worry
TTITLE4=Medley: 3 O'Clock Blues and Darlin' You Know I Love You
TTITLE5=Sweet Sixteen
TTITLE6=The Thrill Is Gone
TTITLE7=Please Accept My Love
TTITLE8=I Like To Live The Love
TTITLE9=Respect Yourself
TTITLE10=Who Are You
TTITLE11=Love
TTITLE12=I Can't Leave
TTITLE13=To Know You Is To Love You
TTITLE14=Oh To Me
TTITLE15=Thank You For Loving The Blues
EXTD=title 1 =01-08\ntitle 2 =09-16
EXTT0=
EXTT1=
EXTT2=
EXTT3=
EXTT4=
EXTT5=
EXTT6=
EXTT7=
EXTT8=
EXTT9=
EXTT10=
EXTT11=
EXTT12=
EXTT13=
EXTT14=
EXTT15=
PLAYORDER=
